<svg width="217" height="384" viewBox="0 0 217 384" fill="none" xmlns="http://www.w3.org/2000/svg">
<g opacity="0.5">
<path d="M0.00012207 198.758L0.00010224 9.93666C114.3 9.93665 206.957 94.4743 206.957 198.758L0.00012207 198.758Z" fill="#F6AD8E"/>
<path d="M0.000106812 198.758L9.07729e-05 46.0421C92.4488 46.0421 167.384 114.41 167.384 198.758L0.000106812 198.758Z" fill="#EF7F70"/>
<path d="M216.721 34.0693L180.393 0.925537L109.508 65.5989L145.836 98.7427L216.721 34.0693Z" fill="#F6AD8E"/>
<path d="M0.208341 194.61L207.165 194.61C207.165 298.894 114.508 383.431 0.208359 383.431L0.208341 194.61Z" fill="#F6AD8E"/>
<path d="M0.208312 194.61L167.592 194.61C167.592 278.958 92.6571 347.326 0.208328 347.326L0.208312 194.61Z" fill="#A1402F"/>
</g>
</svg>
