<svg width="225" height="107" viewBox="0 0 225 107" fill="none" xmlns="http://www.w3.org/2000/svg">
<path d="M116.364 106.143L5.2879 106.143C5.2879 50.1726 55.018 4.80043 116.364 4.80043L116.364 106.143Z" fill="#F6AD8E"/>
<path d="M116.364 106.143L26.5049 106.143C26.5049 60.8725 66.7231 24.1786 116.341 24.1786L116.341 106.143L116.364 106.143Z" fill="#D85744"/>
<path d="M19.4971 -0.000137806L0 17.7885L38.0447 52.4993L57.5419 34.7107L19.4971 -0.000137806Z" fill="#F6AD8E"/>
<path d="M113.924 106.04L113.924 4.69826C175.27 4.69826 225 50.0705 225 106.04L113.924 106.04Z" fill="#F6AD8E"/>
<path d="M113.924 106.04L113.924 24.0764C163.542 24.0764 203.761 60.7703 203.761 106.04L113.924 106.04Z" fill="#A1402F"/>
</svg>
