<svg width="192" height="289" viewBox="0 0 192 289" fill="none" xmlns="http://www.w3.org/2000/svg">
<g clip-path="url(#clip0_3278_30235)">
<path d="M44.6574 46.4731C59.561 77.8444 54.41 111.481 33.1192 121.572C11.8285 131.663 -17.4979 114.501 -32.4701 83.1301C-47.3736 51.7588 -42.2226 18.1223 -20.9319 8.03129C0.35891 -2.05968 29.6852 15.1018 44.6574 46.4731Z" fill="#F6AD8E"/>
<path d="M20.1391 129.535C-0.876949 129.535 -24.2281 112.374 -37.0712 85.3274C-53.1423 51.4849 -46.8925 14.7592 -23.1292 3.43262C-11.2476 -2.19636 2.96912 -0.823437 16.8425 7.2768C30.0977 15.0338 41.6359 28.2139 49.2594 44.277C65.3991 78.1196 59.0806 114.845 35.3173 126.172C30.5784 128.437 25.4274 129.535 20.1391 129.535ZM-7.74494 10.2286C-11.6597 10.2286 -15.3684 11.0523 -18.7337 12.6312C-37.4146 21.5552 -41.5354 52.1713 -27.8681 80.9341C-14.2008 109.697 12.1722 125.829 30.9218 116.973C49.6714 108.049 53.7236 77.4331 40.0563 48.6704C33.257 34.392 23.161 22.8595 11.6915 16.1321C5.02952 12.2193 -1.56375 10.2286 -7.67626 10.2286H-7.74494Z" fill="#F6AD8E"/>
<path d="M21.6498 102.626C19.7268 102.626 17.8724 101.528 17.0482 99.7428L-12.4154 37.7553C-13.6517 35.2154 -12.5528 32.1264 -10.0116 30.9594C-7.47048 29.7237 -4.44857 30.8221 -3.21233 33.362L26.2513 95.2808C27.4876 97.8207 26.3887 100.91 23.8475 102.077C23.1607 102.42 22.4053 102.557 21.6498 102.557V102.626Z" fill="#F8F4E3"/>
<path d="M176.317 46.4735C191.221 77.8447 186.07 111.481 164.779 121.572C143.488 131.663 114.162 114.502 99.1897 83.1305C84.2861 51.7592 89.4371 18.1226 110.728 8.03166C132.019 -2.05932 161.345 15.1022 176.317 46.4735Z" fill="#F6AD8E"/>
<path d="M151.867 129.535C130.851 129.535 107.5 112.374 94.6566 85.327C78.5855 51.4845 84.8354 14.7589 108.599 3.43225C120.48 -2.19672 134.697 -0.823804 148.57 7.27643C161.826 15.0334 173.364 28.2135 180.987 44.2767C197.127 78.1192 190.808 114.845 167.045 126.171C162.306 128.437 157.155 129.535 151.867 129.535ZM123.983 10.2282C120.068 10.2282 116.359 11.052 112.994 12.6308C94.3132 21.5548 90.1924 52.171 103.86 80.9337C117.527 109.696 143.9 125.828 162.65 116.973C181.399 108.049 185.451 77.4327 171.784 48.67C164.985 34.3916 154.889 22.8591 143.419 16.1318C136.757 12.219 130.164 10.2282 124.052 10.2282H123.983Z" fill="#F6AD8E"/>
<path d="M153.309 102.626C151.386 102.626 149.532 101.527 148.708 99.7426L119.244 37.8238C118.008 35.2839 119.107 32.1948 121.648 31.0279C124.189 29.7922 127.211 30.8906 128.447 33.4305L157.911 95.3492C159.147 97.8891 158.048 100.978 155.507 102.145C154.82 102.488 154.065 102.626 153.309 102.626Z" fill="#F8F4E3"/>
<path d="M20.1387 289C-0.877316 289 -24.2285 271.839 -37.0716 244.792C-53.1427 210.95 -46.8928 174.224 -23.1296 162.897C-11.248 157.268 2.96875 158.641 16.8421 166.742C30.0973 174.499 41.6355 187.679 49.259 203.742C65.3988 237.584 59.0802 274.31 35.317 285.637C30.5781 287.902 25.4271 289 20.1387 289ZM-7.7453 169.693C-11.6601 169.693 -15.3688 170.517 -18.7341 172.096C-37.415 181.02 -41.5358 211.636 -27.8685 240.399C-14.2012 269.161 12.1719 285.293 30.9215 276.438C49.6711 267.514 53.7232 236.898 40.0559 208.135C33.2566 193.857 23.1606 182.324 11.6911 175.597C5.02915 171.684 -1.56412 169.693 -7.67662 169.693H-7.7453Z" fill="#F6AD8E"/>
<path d="M21.6498 262.022C19.7268 262.022 17.8724 260.924 17.0482 259.139L-12.4154 197.221C-13.6517 194.681 -12.5528 191.592 -10.0116 190.425C-7.47048 189.189 -4.44857 190.287 -3.21233 192.827L26.2513 254.746C27.4876 257.286 26.3887 260.375 23.8475 261.542C23.1607 261.885 22.4053 262.022 21.6498 262.022Z" fill="#F6AD8E"/>
<path d="M153.446 289C132.43 289 109.079 271.839 96.2359 244.792C80.0961 210.95 86.4147 174.224 110.178 162.897C122.06 157.268 136.208 158.641 150.15 166.742C163.405 174.499 174.943 187.679 182.567 203.742C198.706 237.584 192.388 274.31 168.625 285.637C163.886 287.902 158.735 289 153.446 289ZM125.562 169.693C121.647 169.693 117.939 170.517 114.573 172.096C95.8925 181.02 91.7717 211.636 105.439 240.399C119.106 269.161 145.479 285.293 164.229 276.438C182.91 267.514 187.031 236.898 173.363 208.135C166.564 193.857 156.468 182.324 144.999 175.597C138.337 171.684 131.743 169.693 125.631 169.693H125.562Z" fill="#F6AD8E"/>
<path d="M154.957 262.022C153.034 262.022 151.18 260.924 150.356 259.139L120.892 197.221C119.656 194.681 120.755 191.592 123.296 190.425C125.837 189.189 128.859 190.287 130.095 192.827L159.559 254.746C160.795 257.286 159.696 260.375 157.155 261.542C156.468 261.885 155.713 262.022 154.957 262.022Z" fill="#F6AD8E"/>
</g>
<defs>
<clipPath id="clip0_3278_30235">
<rect width="237.495" height="289" fill="white" transform="translate(-46)"/>
</clipPath>
</defs>
</svg>
