<svg width="83" height="93" viewBox="0 0 83 93" fill="none" xmlns="http://www.w3.org/2000/svg">
<g clip-path="url(#clip0_3270_30873)">
<path d="M31.6831 15.3471C36.8916 25.35 35.0914 36.0752 27.6507 39.2928C20.21 42.5104 9.961 37.0383 4.7285 27.0354C-0.480006 17.0325 1.32017 6.30729 8.76088 3.08972C16.2016 -0.127842 26.4506 5.34421 31.6831 15.3471Z" fill="#F6AD8E"/>
<path d="M23.1143 41.832C15.7696 41.832 7.60885 36.3599 3.12042 27.736C-2.49612 16.9451 -0.311911 5.2349 7.99289 1.62335C12.1453 -0.171484 17.1138 0.26628 21.9622 2.84909C26.5947 5.32245 30.6271 9.52499 33.2913 14.6468C38.9319 25.4377 36.7237 37.1479 28.4189 40.7594C26.7627 41.4818 24.9625 41.832 23.1143 41.832ZM13.3694 3.79028C12.0013 3.79028 10.7052 4.05294 9.52904 4.55637C3.00041 7.40183 1.56027 17.164 6.33673 26.3351C11.1132 35.5063 20.3301 40.65 26.8827 37.8264C33.4353 34.981 34.8515 25.2188 30.075 16.0477C27.6988 11.4949 24.1704 7.81771 20.1621 5.67266C17.8338 4.42504 15.5296 3.79028 13.3934 3.79028H13.3694Z" fill="#F6AD8E"/>
<path d="M23.6423 33.2517C22.9702 33.2517 22.3222 32.9014 22.0341 32.3324L11.7371 12.5673C11.3051 11.7574 11.6891 10.7725 12.5772 10.4004C13.4653 10.0064 14.5214 10.3566 14.9535 11.1665L25.2505 30.9096C25.6825 31.7195 25.2985 32.7045 24.4104 33.0766C24.1703 33.186 23.9063 33.2298 23.6423 33.2298V33.2517Z" fill="#F8F4E3"/>
<path d="M77.6956 15.3471C82.9041 25.35 81.1039 36.0752 73.6632 39.2928C66.2225 42.5104 55.9735 37.0383 50.741 27.0354C45.5325 17.0325 47.3327 6.3073 54.7734 3.08974C62.2141 -0.127826 72.4631 5.34422 77.6956 15.3471Z" fill="#F6AD8E"/>
<path d="M69.1507 41.8318C61.806 41.8318 53.6452 36.3598 49.1568 27.7358C43.5403 16.945 45.7245 5.23476 54.0293 1.62321C58.1817 -0.171621 63.1501 0.266143 67.9986 2.84895C72.6311 5.32232 76.6634 9.52485 79.3277 14.6467C84.9682 25.4376 82.76 37.1478 74.4552 40.7593C72.7991 41.4816 70.9989 41.8318 69.1507 41.8318ZM59.4058 3.79014C58.0377 3.79014 56.7415 4.0528 55.5654 4.55623C49.0368 7.40169 47.5966 17.1638 52.3731 26.335C57.1496 35.5061 66.3665 40.6499 72.9191 37.8263C79.4717 34.9808 80.8878 25.2187 76.1114 16.0475C73.7352 11.4948 70.2068 7.81757 66.1984 5.67253C63.8702 4.4249 61.566 3.79014 59.4298 3.79014H59.4058Z" fill="#F6AD8E"/>
<path d="M69.6547 33.2517C68.9827 33.2517 68.3346 32.9015 68.0466 32.3324L57.7496 12.5892C57.3176 11.7793 57.7016 10.7944 58.5897 10.4223C59.4778 10.0283 60.5339 10.3785 60.9659 11.1884L71.2629 30.9315C71.6949 31.7414 71.3109 32.7263 70.4228 33.0984C70.1828 33.2079 69.9188 33.2517 69.6547 33.2517Z" fill="#F8F4E3"/>
<path d="M23.1142 92.6781C15.7695 92.6781 7.60873 87.2061 3.1203 78.5821C-2.49624 67.7912 -0.312033 56.081 7.99277 52.4695C12.1452 50.6747 17.1136 51.1124 21.9621 53.6952C26.5946 56.1686 30.6269 60.3711 33.2912 65.493C38.9317 76.2839 36.7235 87.994 28.4187 91.6056C26.7626 92.3279 24.9624 92.6781 23.1142 92.6781ZM13.3693 54.6364C12.0012 54.6364 10.705 54.8991 9.52892 55.4025C3.00029 58.248 1.56015 68.0101 6.33661 77.1813C11.1131 86.3524 20.33 91.4961 26.8826 88.6726C33.4352 85.8271 34.8514 76.065 30.0749 66.8938C27.6987 62.3411 24.1703 58.6639 20.1619 56.5188C17.8337 55.2712 15.5295 54.6364 13.3933 54.6364H13.3693Z" fill="#F6AD8E"/>
<path d="M23.6423 84.076C22.9702 84.076 22.3222 83.7258 22.0341 83.1567L11.7371 63.4136C11.3051 62.6037 11.6891 61.6188 12.5772 61.2467C13.4653 60.8527 14.5214 61.2029 14.9535 62.0128L25.2505 81.7559C25.6825 82.5658 25.2985 83.5507 24.4104 83.9228C24.1703 84.0323 23.9063 84.076 23.6423 84.076Z" fill="#F6AD8E"/>
<path d="M69.7027 92.6781C62.3579 92.6781 54.1972 87.2061 49.7087 78.5821C44.0682 67.7912 46.2764 56.081 54.5812 52.4695C58.7336 50.6747 63.6781 51.1124 68.5505 53.6952C73.183 56.1686 77.2154 60.3711 79.8796 65.493C85.5202 76.2839 83.312 87.994 75.0072 91.6056C73.351 92.3279 71.5508 92.6781 69.7027 92.6781ZM59.9577 54.6364C58.5896 54.6364 57.2935 54.8991 56.1173 55.4025C49.5887 58.248 48.1486 68.0101 52.925 77.1813C57.7015 86.3524 66.9184 91.4961 73.471 88.6726C79.9996 85.8271 81.4398 76.065 76.6633 66.8938C74.2871 62.3411 70.7588 58.6639 66.7504 56.5188C64.4221 55.2712 62.1179 54.6364 59.9817 54.6364H59.9577Z" fill="#F6AD8E"/>
<path d="M70.2307 84.076C69.5586 84.076 68.9105 83.7258 68.6225 83.1567L58.3255 63.4136C57.8935 62.6037 58.2775 61.6188 59.1656 61.2467C60.0537 60.8527 61.1098 61.2029 61.5418 62.0128L71.8388 81.7559C72.2709 82.5658 71.8868 83.5507 70.9987 83.9228C70.7587 84.0323 70.4947 84.076 70.2307 84.076Z" fill="#F6AD8E"/>
</g>
<defs>
<clipPath id="clip0_3270_30873">
<rect width="83" height="92.1493" fill="white" transform="translate(0 0.528809)"/>
</clipPath>
</defs>
</svg>
