<svg width="84" height="58" viewBox="0 0 84 58" fill="none" xmlns="http://www.w3.org/2000/svg">
<g id="Warstwa_1" clip-path="url(#clip0_3270_30975)">
<path id="Vector" d="M48.26 57.02H35.81C16.33 57.02 0.47998 41.16 0.47998 21.68V0H83.6V21.68C83.6 41.17 67.75 57.02 48.26 57.02Z" fill="#F6AD8E"/>
<path id="Vector_2" d="M75.9801 7.62H8.1001V14.15H75.9801V7.62Z" fill="#EF7F70"/>
<path id="Vector_3" d="M35.8101 49.4H48.2601C63.3601 49.4 75.6801 37.25 75.9701 22.22H8.1001C8.3901 37.26 20.7101 49.4 35.8101 49.4Z" fill="#A1402F"/>
<path id="Vector_4" d="M75.9801 14.15H8.1001V21.68C8.1001 21.86 8.1001 22.04 8.1001 22.21H75.9701C75.9701 22.03 75.9701 21.86 75.9701 21.68V14.15H75.9801Z" fill="#D85744"/>
</g>
<defs>
<clipPath id="clip0_3270_30975">
<rect width="83.6" height="57.47" fill="white"/>
</clipPath>
</defs>
</svg>
