<svg width="26" height="29" viewBox="0 0 26 29" fill="none" xmlns="http://www.w3.org/2000/svg">
<path d="M16.2691 28.2881C11.3682 28.2881 5.9228 24.6394 2.9278 18.889C-0.835964 11.6938 0.637508 3.88552 6.17905 1.47737C8.94982 0.280597 12.2491 0.572501 15.5004 2.29469C18.5915 3.94391 21.2822 6.74612 23.0599 10.1613C26.8237 17.3566 25.3502 25.1648 19.8087 27.573C18.7036 28.0546 17.5024 28.2881 16.2691 28.2881ZM9.76665 2.92227C8.85373 2.92227 7.98886 3.09741 7.20408 3.43309C2.84772 5.33042 1.88677 11.8397 5.07395 17.955C8.26114 24.0702 14.4113 27.5 18.7837 25.6172C23.14 23.7199 24.101 17.2106 20.9138 11.0954C19.3282 8.05965 16.9738 5.60772 14.2992 4.17743C12.7456 3.34552 11.2081 2.92227 9.78266 2.92227H9.76665Z" fill="#F6AD8E"/>
<path d="M16.6216 22.5522C16.1731 22.5522 15.7407 22.3187 15.5485 21.9392L8.67762 8.77469C8.38933 8.23468 8.64558 7.57792 9.23817 7.32981C9.83077 7.0671 10.5355 7.30062 10.8238 7.84062L17.6946 21.0052C17.9829 21.5452 17.7267 22.202 17.1341 22.4501C16.9739 22.523 16.7977 22.5522 16.6216 22.5522Z" fill="#F6AD8E"/>
</svg>
