<svg width="25" height="29" viewBox="0 0 25 29" fill="none" xmlns="http://www.w3.org/2000/svg">
<path d="M21.6025 10.7246C25.078 17.3944 23.8768 24.5459 18.9118 26.6913C13.9468 28.8368 7.108 25.1881 3.61651 18.5182C0.141032 11.8484 1.34223 4.6969 6.3072 2.55146C11.2722 0.406015 18.111 4.05472 21.6025 10.7246Z" fill="#F6AD8E"/>
<path d="M15.8848 28.3843C10.9839 28.3843 5.53844 24.7356 2.54344 18.9852C-1.20431 11.79 0.253151 3.98172 5.79469 1.57357C8.56547 0.376792 11.8808 0.668685 15.116 2.39088C18.2071 4.04009 20.8978 6.8423 22.6756 10.2575C26.4393 17.4528 24.9659 25.261 19.4243 27.6691C18.3192 28.1508 17.118 28.3843 15.8848 28.3843ZM9.38228 3.01846C8.46937 3.01846 7.6045 3.19359 6.81972 3.52927C2.46336 5.4266 1.5024 11.9359 4.68959 18.0511C7.87677 24.1664 14.0269 27.5962 18.3993 25.7134C22.7717 23.8161 23.7166 17.3068 20.5294 11.1916C18.9438 8.15584 16.5895 5.70391 13.9148 4.27361C12.3613 3.44171 10.8237 3.01846 9.3983 3.01846H9.38228Z" fill="#F6AD8E"/>
<path d="M16.237 22.6631C15.7886 22.6631 15.3562 22.4296 15.164 22.0501L8.29309 8.88553C8.0048 8.34552 8.26107 7.68876 8.85366 7.44065C9.44626 7.17794 10.151 7.41146 10.4392 7.95146L17.3101 21.116C17.5984 21.656 17.3422 22.3128 16.7496 22.5609C16.5894 22.6339 16.4132 22.6631 16.237 22.6631Z" fill="#F8F4E3"/>
</svg>
