<svg width="113" height="113" viewBox="0 0 113 113" fill="none" xmlns="http://www.w3.org/2000/svg">
<g id="Warstwa_1">
<path id="Vector" d="M72.3313 27.1487H85.8514V40.6687C85.8514 80.5996 53.4292 113 13.5201 113H0V99.4799C0 59.5708 32.4221 27.1487 72.3313 27.1487Z" fill="#F6AD8E"/>
<g id="Clip path group">
<mask id="mask0_3270_30966" style="mask-type:luminance" maskUnits="userSpaceOnUse" x="0" y="27" width="86" height="86">
<g id="clippath">
<path id="Vector_2" d="M72.3313 27.1487H85.8514V40.6687C85.8514 80.5996 53.4292 113 13.5201 113H0V99.4799C0 59.5708 32.4221 27.1487 72.3313 27.1487Z" fill="white"/>
</g>
</mask>
<g mask="url(#mask0_3270_30966)">
<g id="Group">
<path id="Vector_3" d="M0 113L85.8514 27.1487V113H0Z" fill="#A1402F"/>
<path id="Vector_4" d="M85.8515 94.0762H18.9456V27.1487H21.4629V91.5372H85.8515V94.0762Z" fill="#A1402F"/>
<path id="Vector_5" d="M46.094 0H48.6114V64.3885H113V66.9276H46.094" fill="#A1402F"/>
</g>
</g>
</g>
</g>
</svg>
