<svg width="238" height="400" viewBox="0 0 238 400" fill="none" xmlns="http://www.w3.org/2000/svg">
<g clip-path="url(#clip0_3278_31391)">
<path d="M219.784 93.2416H236.214V109.688C236.214 158.226 196.845 197.659 148.333 197.659H131.904V181.213C131.904 132.675 171.273 93.2416 219.784 93.2416Z" fill="#F6AD8E"/>
<mask id="mask0_3278_31391" style="mask-type:luminance" maskUnits="userSpaceOnUse" x="131" y="93" width="106" height="105">
<path d="M219.784 93.2416H236.214V109.688C236.214 158.226 196.845 197.659 148.333 197.659H131.904V181.213C131.904 132.675 171.273 93.2416 219.784 93.2416Z" fill="white"/>
</mask>
<g mask="url(#mask0_3278_31391)">
<path d="M131.904 197.635L236.19 93.2416V197.635H131.904Z" fill="#D85744"/>
</g>
<path d="M112.513 265.843H96.0837C47.5953 265.843 8.20284 226.434 8.20284 177.872V161.426H24.632C73.1205 161.426 112.513 200.835 112.513 249.397V265.843Z" fill="#F6AD8E"/>
<mask id="mask1_3278_31391" style="mask-type:luminance" maskUnits="userSpaceOnUse" x="8" y="161" width="105" height="105">
<path d="M112.513 265.843H96.0837C47.5953 265.843 8.20284 226.434 8.20284 177.872V161.426H24.632C73.1205 161.426 112.513 200.835 112.513 249.397V265.843Z" fill="white"/>
</mask>
<g mask="url(#mask1_3278_31391)">
<path d="M112.513 265.867L8.22644 161.473V265.867H112.513Z" fill="#D85744"/>
</g>
<path d="M112.513 129.428H96.0837C47.5953 129.428 8.20284 90.0182 8.20284 41.4564V25.0103H24.632C73.144 25.0103 112.513 64.4433 112.513 112.982V129.428Z" fill="#F6AD8E"/>
<mask id="mask2_3278_31391" style="mask-type:luminance" maskUnits="userSpaceOnUse" x="8" y="25" width="105" height="105">
<path d="M112.513 129.428H96.0837C47.5953 129.428 8.20284 90.0182 8.20284 41.4564V25.0103H24.632C73.144 25.0103 112.513 64.4433 112.513 112.982V129.428Z" fill="white"/>
</mask>
<g mask="url(#mask2_3278_31391)">
<path d="M112.513 129.428L8.22644 25.0103V129.428H112.513Z" fill="#D85744"/>
</g>
<path d="M131.269 0H112.513V290.877H131.269V0Z" fill="#D85744"/>
<path d="M122.22 400H5.57043C5.57043 335.51 57.796 283.23 122.22 283.23V400Z" fill="#F6AD8E"/>
<path d="M122.22 400H27.8521C27.8521 347.838 70.0885 305.558 122.197 305.558V400H122.22Z" fill="#D85744"/>
<path d="M20.469 277.689L-0.00646973 298.185L39.9474 338.18L60.4229 317.684L20.469 277.689Z" fill="#F6AD8E"/>
<path d="M121.35 400H215.695C215.695 347.838 173.458 305.558 121.35 305.558V400Z" fill="#D85744"/>
<path d="M121.35 400H238C238 335.51 185.774 283.23 121.35 283.23V400Z" fill="#F6AD8E"/>
<path d="M121.35 400H215.695C215.695 347.838 173.458 305.558 121.35 305.558V400Z" fill="#EF7F70"/>
</g>
<defs>
<clipPath id="clip0_3278_31391">
<rect width="238" height="400" fill="white"/>
</clipPath>
</defs>
</svg>
