<svg width="238" height="238" viewBox="0 0 238 238" fill="none" xmlns="http://www.w3.org/2000/svg">
<g clip-path="url(#clip0_3278_31347)">
<path d="M150.042 53.0983L119.794 0.710562C119.536 0.274535 119.067 0 118.567 0C118.066 0 117.598 0.274535 117.34 0.710562L86.9953 53.276C86.7369 53.712 86.7369 54.2611 86.9953 54.6971C87.2537 55.1331 87.722 55.4077 88.2226 55.4077H148.943C149.735 55.4077 150.364 54.7779 150.364 53.9865C150.364 53.6474 150.251 53.3406 150.058 53.0983H150.042Z" fill="#F6AD8E"/>
<path d="M187.12 94.5209L202.784 36.0933C202.914 35.6088 202.784 35.0759 202.413 34.7206C202.058 34.3654 201.525 34.22 201.04 34.3492L142.403 50.0623C141.918 50.1915 141.531 50.5791 141.402 51.0636C141.272 51.548 141.402 52.081 141.773 52.4362L184.697 95.3606C185.247 95.9097 186.151 95.9097 186.7 95.3606C186.942 95.1184 187.071 94.8277 187.104 94.5047L187.12 94.5209Z" fill="#F6AD8E"/>
<path d="M184.052 150.042L236.439 119.794C236.875 119.536 237.15 119.067 237.15 118.567C237.15 118.066 236.875 117.598 236.439 117.34L183.874 86.9953C183.438 86.7369 182.889 86.7369 182.453 86.9953C182.017 87.2537 181.742 87.722 181.742 88.2226V148.927C181.742 149.735 182.372 150.364 183.163 150.364C183.503 150.364 183.809 150.251 184.052 150.058V150.042Z" fill="#F6AD8E"/>
<path d="M142.629 187.12L201.073 202.785C201.557 202.914 202.09 202.785 202.445 202.413C202.801 202.058 202.946 201.525 202.817 201.04L187.104 142.403C186.975 141.919 186.587 141.531 186.103 141.402C185.618 141.273 185.085 141.402 184.73 141.773L141.805 184.698C141.256 185.247 141.256 186.151 141.805 186.7C142.048 186.942 142.338 187.071 142.661 187.104L142.629 187.12Z" fill="#F6AD8E"/>
<path d="M87.1083 184.052L117.356 236.439C117.614 236.875 118.082 237.15 118.583 237.15C119.084 237.15 119.552 236.875 119.81 236.439L150.154 183.874C150.413 183.438 150.413 182.889 150.154 182.453C149.896 182.017 149.428 181.742 148.927 181.742H88.2064C87.4151 181.742 86.7853 182.372 86.7853 183.163C86.7853 183.503 86.8983 183.809 87.0921 184.052H87.1083Z" fill="#F6AD8E"/>
<path d="M50.03 142.629L34.3654 201.057C34.2362 201.541 34.3654 202.074 34.7368 202.429C35.1082 202.785 35.625 202.93 36.1095 202.801L94.7469 187.088C95.2314 186.958 95.619 186.571 95.7482 186.086C95.8774 185.602 95.7482 185.069 95.3768 184.714L52.4524 141.789C51.9033 141.24 50.999 141.24 50.4499 141.789C50.2076 142.032 50.0785 142.322 50.0462 142.645L50.03 142.629Z" fill="#F6AD8E"/>
<path d="M53.0982 87.1084L0.71044 117.356C0.274413 117.614 -0.00012207 118.082 -0.00012207 118.583C-0.00012207 119.084 0.274413 119.552 0.71044 119.81L53.2759 150.155C53.7119 150.413 54.261 150.413 54.697 150.155C55.133 149.896 55.4075 149.428 55.4075 148.927V88.2227C55.4075 87.4152 54.7777 86.7854 53.9864 86.7854C53.6473 86.7854 53.3405 86.8984 53.0982 87.0922V87.1084Z" fill="#F6AD8E"/>
<path d="M94.5369 50.03L36.1093 34.3654C35.6248 34.2362 35.0919 34.3654 34.7366 34.7368C34.3814 35.0921 34.236 35.625 34.3652 36.1095L50.0783 94.7469C50.2075 95.2314 50.5951 95.619 51.0795 95.7482C51.564 95.8774 52.0969 95.7482 52.4522 95.3768L95.3766 52.4524C95.9257 51.9033 95.9257 50.999 95.3766 50.4499C95.1344 50.2076 94.8437 50.0785 94.5207 50.0462L94.5369 50.03Z" fill="#F6AD8E"/>
<path d="M172.796 70.2326L165.012 10.2386C164.947 9.73798 164.624 9.30195 164.156 9.10816C163.688 8.91437 163.155 8.97897 162.751 9.28581L114.53 46.1543C114.126 46.4611 113.916 46.9617 113.981 47.4624C114.045 47.963 114.368 48.399 114.836 48.5928L170.874 71.9283C170.874 71.9283 170.874 71.9283 170.89 71.9283C171.617 72.2351 172.44 71.8798 172.747 71.1693C172.876 70.8624 172.893 70.5233 172.796 70.2326Z" fill="#F6AD8E"/>
<path d="M191.109 122.733L228.026 74.8028C228.333 74.3991 228.413 73.8661 228.219 73.3978C228.026 72.9295 227.59 72.6065 227.089 72.5258L166.917 64.4835C166.417 64.4189 165.916 64.6288 165.609 65.0164C165.302 65.4201 165.222 65.9531 165.415 66.4214L188.541 122.54C188.541 122.54 188.541 122.54 188.541 122.556C188.832 123.282 189.671 123.622 190.398 123.331C190.705 123.202 190.947 122.976 191.093 122.701L191.109 122.733Z" fill="#F6AD8E"/>
<path d="M166.917 172.796L226.911 165.012C227.412 164.947 227.848 164.624 228.042 164.156C228.236 163.688 228.171 163.155 227.864 162.751L190.996 114.53C190.689 114.126 190.188 113.916 189.688 113.981C189.187 114.045 188.751 114.368 188.557 114.837L165.222 170.874C165.222 170.874 165.222 170.874 165.222 170.89C164.915 171.617 165.27 172.441 165.981 172.747C166.288 172.877 166.627 172.893 166.917 172.796Z" fill="#F6AD8E"/>
<path d="M114.433 191.093L162.363 228.01C162.767 228.316 163.3 228.397 163.768 228.203C164.237 228.01 164.56 227.574 164.64 227.073L172.683 166.901C172.747 166.401 172.537 165.9 172.15 165.593C171.746 165.286 171.213 165.206 170.745 165.399L114.627 188.525C114.627 188.525 114.627 188.525 114.61 188.525C113.884 188.816 113.545 189.655 113.835 190.382C113.964 190.689 114.191 190.931 114.465 191.077L114.433 191.093Z" fill="#F6AD8E"/>
<path d="M64.3542 166.917L72.138 226.911C72.2026 227.412 72.5256 227.848 72.9939 228.042C73.4623 228.236 73.9952 228.171 74.3989 227.864L122.62 190.996C123.024 190.689 123.234 190.188 123.169 189.688C123.105 189.187 122.782 188.751 122.313 188.557L66.2759 165.222C66.2759 165.222 66.2759 165.222 66.2598 165.222C65.533 164.915 64.7094 165.27 64.4026 165.981C64.2734 166.288 64.2573 166.627 64.3542 166.917Z" fill="#F6AD8E"/>
<path d="M46.0572 114.417L9.14029 162.347C8.83346 162.751 8.75272 163.284 8.94651 163.752C9.1403 164.22 9.57632 164.543 10.0769 164.624L70.2486 172.666C70.7492 172.731 71.2499 172.521 71.5567 172.134C71.8635 171.73 71.9443 171.197 71.7505 170.729L48.6249 114.61C48.6249 114.61 48.6249 114.61 48.6249 114.594C48.3342 113.867 47.4945 113.528 46.7678 113.819C46.4609 113.948 46.2187 114.174 46.0734 114.449L46.0572 114.417Z" fill="#F6AD8E"/>
<path d="M70.2326 64.3543L10.2386 72.1382C9.73798 72.2028 9.30195 72.5257 9.10816 72.9941C8.91437 73.4624 8.97897 73.9953 9.28581 74.399L46.1543 122.62C46.4611 123.024 46.9617 123.234 47.4624 123.169C47.963 123.105 48.399 122.782 48.5928 122.314L71.9283 66.276C71.9283 66.276 71.9283 66.276 71.9283 66.2599C72.2351 65.5332 71.8798 64.7096 71.1693 64.4027C70.8624 64.2735 70.5233 64.2574 70.2326 64.3543Z" fill="#F6AD8E"/>
<path d="M122.733 46.0573L74.8027 9.14042C74.3989 8.83358 73.866 8.75284 73.3977 8.94663C72.9294 9.14042 72.6064 9.57644 72.5256 10.0771L64.4834 70.2487C64.4188 70.7493 64.6287 71.25 65.0163 71.5568C65.42 71.8636 65.9529 71.9444 66.4213 71.7506L122.539 48.625C122.539 48.625 122.539 48.625 122.556 48.625C123.282 48.3344 123.621 47.4946 123.331 46.7679C123.202 46.4611 122.976 46.2188 122.701 46.0735L122.733 46.0573Z" fill="#F6AD8E"/>
<path d="M182.63 133.552C190.903 98.1708 168.927 62.7823 133.545 54.5097C98.1639 46.2371 62.7753 68.2131 54.5028 103.595C46.2302 138.976 68.2062 174.365 103.588 182.637C138.969 190.91 174.358 168.934 182.63 133.552Z" fill="#F49374"/>
<path d="M108.813 101.013C106.697 98.9296 103.726 98.0252 100.9 97.3308C98.3319 96.701 95.7319 96.2973 93.0996 96.0712C90.2896 95.829 87.4797 95.7159 84.6697 95.7482C79.4859 95.7967 76.6598 95.8128 71.5082 96.4103C67.261 96.9109 59.8647 97.2016 56.7963 100.787C54.2125 103.79 54.6 107.731 54.8423 111.413C55.1007 115.499 55.6982 119.552 56.5541 123.541C57.0709 125.931 57.5392 128.596 58.5889 130.905C58.9765 131.761 59.4448 132.568 60.0262 133.295C62.9168 136.928 66.0013 139.286 70.4585 140.53C74.9641 141.773 79.7281 141.757 84.3629 141.579C104.097 140.788 107.715 125.511 110.589 113.625C110.67 113.286 110.751 112.947 110.831 112.592C111.623 109.087 112.043 105.292 109.862 102.224C109.556 101.788 109.2 101.4 108.845 101.045L108.813 101.013Z" fill="#673D30"/>
<path d="M128.337 101.013C130.453 98.9296 133.424 98.0252 136.25 97.3308C138.818 96.701 141.418 96.2973 144.05 96.0712C146.844 95.829 149.67 95.7159 152.48 95.7482C157.664 95.7967 160.49 95.8128 165.642 96.4103C169.889 96.9109 177.285 97.2016 180.353 100.787C182.937 103.79 182.55 107.731 182.307 111.413C182.049 115.499 181.452 119.552 180.596 123.541C180.079 125.931 179.611 128.596 178.561 130.905C178.173 131.761 177.705 132.568 177.124 133.295C174.233 136.928 171.148 139.286 166.691 140.53C162.186 141.773 157.422 141.757 152.787 141.579C133.053 140.788 129.435 125.511 126.577 113.625C126.496 113.286 126.415 112.947 126.335 112.592C125.559 109.087 125.123 105.292 127.32 102.224C127.627 101.788 127.982 101.4 128.337 101.045V101.013Z" fill="#673D30"/>
<path d="M184.1 97.3308C166.724 93.7457 149.056 92.906 131.599 96.4588C128.079 97.1693 125.915 98.6712 124.671 100.658C122.33 101.481 119.746 102.289 118.583 102.289C117.42 102.289 114.836 101.481 112.495 100.658C111.251 98.6712 109.071 97.1693 105.567 96.4588C88.1096 92.906 70.4425 93.7457 53.066 97.3308C50.2237 97.9122 49.9008 99.0103 49.9008 99.0103V105.551C49.9008 105.551 50.789 105.809 52.2585 107.65C53.7281 109.491 52.6623 112.01 54.9393 123.509C57.2163 135.007 64.9356 142.984 82.1829 142.984C92.7282 142.984 101.223 139.302 106.988 129.887C109.717 125.43 111.332 120.263 112.608 115.176C112.931 113.868 113.238 112.576 113.464 111.284C116.225 110.541 118.599 110.137 118.599 110.137C118.599 110.137 120.957 110.541 123.735 111.284C123.961 112.559 124.268 113.868 124.59 115.176C125.866 120.246 127.497 125.43 130.21 129.887C135.976 139.302 144.454 142.984 155.015 142.984C172.263 142.984 179.982 135.007 182.259 123.509C184.536 112.01 183.47 109.491 184.94 107.65C186.409 105.809 187.298 105.551 187.298 105.551V99.0103C187.298 99.0103 186.975 97.9122 184.132 97.3308H184.1ZM109.572 113.431C106.843 124.736 103.387 139.302 84.6052 140.045C80.1965 140.223 75.6586 140.239 71.3629 139.044C67.0996 137.865 64.1766 135.62 61.4151 132.164C60.866 131.47 60.4138 130.711 60.0586 129.887C59.0735 127.691 58.6213 125.156 58.1207 122.879C57.2971 119.068 56.7318 115.208 56.4896 111.332C56.2635 107.828 55.8921 104.081 58.3629 101.207C61.2859 97.8153 68.3431 97.5246 72.3803 97.0401C77.2897 96.4749 79.9704 96.4588 84.9121 96.4103C87.5928 96.3942 90.2736 96.4911 92.9382 96.7171C95.4413 96.9432 97.9283 97.3147 100.367 97.9283C103.064 98.6066 105.89 99.4625 107.908 101.433C108.248 101.772 108.587 102.143 108.877 102.547C110.961 105.47 110.557 109.087 109.814 112.43C109.733 112.753 109.669 113.092 109.588 113.415L109.572 113.431ZM180.693 111.332C180.45 115.224 179.869 119.084 179.061 122.879C178.577 125.156 178.125 127.691 177.124 129.887C176.752 130.711 176.316 131.47 175.767 132.164C173.006 135.62 170.083 137.865 165.819 139.044C161.54 140.239 156.986 140.207 152.577 140.045C133.795 139.302 130.34 124.736 127.61 113.431C127.53 113.109 127.449 112.786 127.384 112.446C126.641 109.104 126.238 105.502 128.321 102.563C128.612 102.143 128.951 101.788 129.29 101.449C131.309 99.4625 134.118 98.6066 136.832 97.9445C139.27 97.3308 141.757 96.9594 144.26 96.7333C146.925 96.4911 149.605 96.3942 152.286 96.4265C157.228 96.4749 159.909 96.4911 164.818 97.0563C168.855 97.5246 175.912 97.8153 178.835 101.223C181.306 104.097 180.935 107.828 180.709 111.348L180.693 111.332Z" fill="#515151"/>
</g>
<defs>
<clipPath id="clip0_3278_31347">
<rect width="237.15" height="237.15" fill="white"/>
</clipPath>
</defs>
</svg>
