<svg width="16" height="16" viewBox="0 0 16 16" fill="none" xmlns="http://www.w3.org/2000/svg">
<path d="M1.92001 4.74682C1.59334 5.07348 1.59334 5.60015 1.92001 5.92682L7.52667 11.5335C7.58835 11.5953 7.66161 11.6443 7.74226 11.6778C7.82291 11.7112 7.90936 11.7284 7.99667 11.7284C8.08399 11.7284 8.17044 11.7112 8.25109 11.6778C8.33174 11.6443 8.405 11.5953 8.46667 11.5335L14.08 5.92015C14.4 5.60015 14.4 5.06682 14.08 4.74682C14.0026 4.66921 13.9106 4.60764 13.8094 4.56563C13.7082 4.52362 13.5996 4.50199 13.49 4.50199C13.3804 4.50199 13.2719 4.52362 13.1706 4.56563C13.0694 4.60764 12.9774 4.66921 12.9 4.74682L8.00001 9.64015L3.10001 4.74015C2.77334 4.42015 2.24667 4.42015 1.92001 4.74682Z" fill="#AE6851"/>
</svg>
